<svg width="375" height="120" viewBox="0 0 375 120" fill="none" xmlns="http://www.w3.org/2000/svg">
<rect width="367" height="120" rx="15" fill="white"/>
<path d="M39.9299 34.8421C39.406 33.543 38.8709 32.7958 37.9652 32.225C39.4249 32.6231 40.3381 32.826 42.7335 32.3231C41.2438 33.3967 40.8694 33.7571 39.9299 34.8421Z" fill="#FFC226"/>
<path d="M39.3004 35.4482C38.028 34.8698 37.3057 34.3028 36.7743 33.3716C37.111 34.851 37.2756 35.7746 36.6765 38.1549C37.8069 36.7058 38.1813 36.3454 39.3004 35.4482Z" fill="#FFC226"/>
<path d="M45.0121 17.4594C47.6048 18.5501 52.9914 22.9186 56.3297 24.9608C53.011 25.5408 50.2517 26.8568 47.1273 28.7306L50.2309 24.0814C47.6423 23.5458 45.9795 23.3732 44.697 24.6781C44.373 25.0077 44.3305 25.0509 43.5949 25.4265C43.7559 22.2797 38.3858 20.0996 36.9353 23.6262C41.3797 25.4432 38.6398 29.3495 36.5939 27.3295C34.1691 24.0171 35.2254 17.1628 41.32 17.4871C43.5394 18.0255 43.7517 21.7246 43.7517 21.7246C47.2551 21.1432 45.0121 17.4594 45.0121 17.4594Z" fill="#FFC226"/>
<path d="M29.1836 51.5633C27.2218 48.1722 22.9857 42.6764 21.9561 40.0539C21.9561 40.0539 25.5801 42.3843 26.2389 38.887C26.2389 38.887 22.554 38.591 22.0669 36.3549C21.8807 30.2406 28.7413 29.3364 31.9908 31.8406C33.9596 33.9361 30.0015 36.5937 28.2892 32.0995C24.7389 33.4735 26.7925 38.9036 29.935 38.8131C29.5438 39.5418 29.4997 39.5834 29.1636 39.9005C27.8332 41.1563 27.9678 42.8264 28.4438 45.4323L33.1511 42.427C31.2117 45.5156 29.8369 48.2509 29.1836 51.5633Z" fill="#FFC226"/>
<path d="M34.99 30.3829C34.99 30.3829 32.137 26.8696 34.0046 20.6912C34.0046 20.6912 31.0922 22.7745 29.3319 24.4693C27.4792 26.2532 25.3158 29.0717 25.3158 29.0717C31.5889 27.3604 34.99 30.3829 34.99 30.3829Z" fill="#FFC226"/>
<path d="M63.4264 11.2881L64.7104 10C64.7104 10 57.5862 10.148 53.1541 11.1041C48.7911 12.0452 42.5149 14.6002 42.5149 14.6002C43.1875 14.6616 45.3765 15.2627 46.5504 15.7043C47.7244 16.1459 50.0968 17.1764 51.5032 17.7284C51.5032 17.7284 50.586 16.4403 52.2369 15.1523C52.2369 15.1523 53.3375 14.4162 54.9884 14.9683C54.9884 14.9683 52.9707 17.1764 54.0713 20.1205C55.4207 23.7304 59.024 23.9345 60.4915 23.8007C61.959 23.6669 65.4442 19.9365 60.6749 17.7284C60.6749 17.7284 59.7931 18.2869 59.5743 19.3845C59.2074 21.2246 60.0635 21.6539 60.4915 22.1446C60.4915 22.1446 56.4559 22.5126 56.089 19.3845C55.7675 16.6432 58.1068 15.3363 58.1068 15.3363C59.2808 14.453 61.2863 14.8456 62.1424 15.1523C62.0812 14.7229 61.8489 13.8642 62.1424 13.1282C62.5092 12.2081 63.243 11.4721 63.4264 11.2881Z" fill="#FFC226"/>
<path d="M66.5448 11.2881L65.2607 10C65.2607 10 72.385 10.148 76.8171 11.1041C81.1801 12.0452 87.4563 14.6002 87.4563 14.6002C86.7837 14.6616 84.5947 15.2627 83.4207 15.7043C82.2468 16.1459 79.8743 17.1764 78.468 17.7284C78.468 17.7284 79.3852 16.4403 77.7343 15.1523C77.7343 15.1523 76.6337 14.4162 74.9828 14.9683C74.9828 14.9683 77.0005 17.1764 75.8999 20.1205C74.5505 23.7304 70.9472 23.9345 69.4797 23.8007C68.0122 23.6669 64.527 19.9365 69.2963 17.7284C69.2963 17.7284 70.178 18.2869 70.3969 19.3845C70.7638 21.2246 69.9077 21.6539 69.4797 22.1446C69.4797 22.1446 73.5153 22.5126 73.8822 19.3845C74.2036 16.6432 71.8644 15.3363 71.8644 15.3363C70.6904 14.453 68.6849 14.8456 67.8288 15.1523C67.89 14.7229 68.1223 13.8642 67.8288 13.1282C67.462 12.2081 66.7282 11.4721 66.5448 11.2881Z" fill="#FFC226"/>
<path d="M90.0419 34.8421C90.5658 33.543 91.1009 32.7958 92.0066 32.225C90.547 32.6231 89.6337 32.826 87.2383 32.3231C88.728 33.3967 89.1024 33.7571 90.0419 34.8421Z" fill="#FFC226"/>
<path d="M90.6714 35.4482C91.9438 34.8698 92.6661 34.3028 93.1975 33.3716C92.8608 34.851 92.6962 35.7746 93.2953 38.1549C92.1649 36.7058 91.7905 36.3454 90.6714 35.4482Z" fill="#FFC226"/>
<path d="M73.4586 24.9608C76.797 22.9185 82.1835 18.5501 84.7763 17.4593C84.7763 17.4593 82.5333 21.1432 86.0366 21.7246C86.0366 21.7246 86.2489 18.0255 88.4683 17.4871C94.5629 17.1628 95.6193 24.0171 93.1945 27.3295C91.1486 29.3495 88.4087 25.4432 92.853 23.6262C91.4025 20.0996 86.0324 22.2797 86.1934 25.4265C85.4578 25.0509 85.4153 25.0077 85.0914 24.6781C83.8089 23.3732 82.146 23.5457 79.5575 24.0814L82.661 28.7306C79.5366 26.8568 76.7773 25.5408 73.4586 24.9608Z" fill="#FFC226"/>
<path d="M100.605 51.5633C102.567 48.1722 106.803 42.6764 107.832 40.0539C107.832 40.0539 104.208 42.3843 103.549 38.887C103.549 38.887 107.234 38.591 107.721 36.3549C107.908 30.2406 101.047 29.3364 97.7976 31.8406C95.8287 33.9361 99.7869 36.5937 101.499 32.0995C105.049 33.4735 102.996 38.9036 99.8534 38.8131C100.245 39.5418 100.289 39.5834 100.625 39.9005C101.955 41.1563 101.821 42.8264 101.345 45.4323L96.6372 42.427C98.5766 45.5156 99.9514 48.2509 100.605 51.5633Z" fill="#FFC226"/>
<path d="M94.9815 30.3829C94.9815 30.3829 97.8345 26.8696 95.967 20.6912C95.967 20.6912 98.8794 22.7745 100.64 24.4693C102.492 26.2532 104.656 29.0717 104.656 29.0717C98.3826 27.3604 94.9815 30.3829 94.9815 30.3829Z" fill="#FFC226"/>
<path d="M66.5452 11.2881L65.2611 10C65.2611 10 72.3853 10.148 76.8175 11.1041C81.1805 12.0452 87.4567 14.6002 87.4567 14.6002C86.7841 14.6616 84.5951 15.2627 83.4211 15.7043C82.2471 16.1459 79.8747 17.1764 78.4684 17.7284C78.4684 17.7284 79.3856 16.4403 77.7346 15.1523C77.7346 15.1523 76.634 14.4162 74.9831 14.9683C74.9831 14.9683 77.0009 17.1764 75.9003 20.1205C74.5508 23.7304 70.9476 23.9345 69.4801 23.8007C68.0126 23.6669 64.5274 19.9365 69.2967 17.7284C69.2967 17.7284 70.1784 18.2869 70.3972 19.3845C70.7641 21.2246 69.9081 21.6539 69.4801 22.1446C69.4801 22.1446 73.5157 22.5126 73.8825 19.3845C74.204 16.6432 71.8647 15.3363 71.8647 15.3363C70.6908 14.453 68.6852 14.8456 67.8292 15.1523C67.8903 14.7229 68.1227 13.8642 67.8292 13.1282C67.4623 12.2081 66.7286 11.4721 66.5452 11.2881Z" fill="#FFC226"/>
<path d="M63.4264 11.2881L64.7104 10C64.7104 10 57.5862 10.148 53.1541 11.1041C48.7911 12.0452 42.5149 14.6002 42.5149 14.6002C43.1875 14.6616 45.3765 15.2627 46.5504 15.7043C47.7244 16.1459 50.0968 17.1764 51.5032 17.7284C51.5032 17.7284 50.586 16.4403 52.2369 15.1523C52.2369 15.1523 53.3375 14.4162 54.9884 14.9683C54.9884 14.9683 52.9707 17.1764 54.0713 20.1205C55.4207 23.7304 59.024 23.9345 60.4915 23.8007C61.959 23.6669 65.4442 19.9365 60.6749 17.7284C60.6749 17.7284 59.7931 18.2869 59.5743 19.3845C59.2074 21.2246 60.0635 21.6539 60.4915 22.1446C60.4915 22.1446 56.4559 22.5126 56.089 19.3845C55.7675 16.6432 58.1068 15.3363 58.1068 15.3363C59.2808 14.453 61.2863 14.8456 62.1424 15.1523C62.0812 14.7229 61.8489 13.8642 62.1424 13.1282C62.5092 12.2081 63.243 11.4721 63.4264 11.2881Z" fill="#FFC226"/>
<path d="M16.284 58.2105L15 59.4985C15 59.4985 15.1476 52.352 16.1006 47.9059C17.0388 43.5293 19.5859 37.2334 19.5859 37.2334C19.647 37.9081 20.2462 40.1039 20.6865 41.2816C21.1267 42.4593 22.1539 44.8391 22.7042 46.2499C22.7042 46.2499 21.4202 45.3298 20.1362 46.9859C20.1362 46.9859 19.4024 48.09 19.9527 49.746C19.9527 49.746 22.1539 47.7219 25.0889 48.826C28.6875 50.1797 28.891 53.7942 28.7576 55.2663C28.6242 56.7384 24.9055 60.2346 22.7042 55.4503C22.7042 55.4503 23.261 54.5658 24.3552 54.3463C26.1895 53.9783 26.6175 54.837 27.1067 55.2663C27.1067 55.2663 27.4735 51.2181 24.3552 50.8501C21.6225 50.5276 20.3196 52.8742 20.3196 52.8742C19.4391 54.0519 19.8304 56.0637 20.1362 56.9224C19.7082 56.8611 18.8521 56.628 18.1184 56.9224C17.2012 57.2904 16.4675 58.0264 16.284 58.2105Z" fill="#FFC226"/>
<path d="M16.284 61.3387L15 60.0506C15 60.0506 15.1476 67.1972 16.1006 71.6432C17.0388 76.0199 19.5859 82.3157 19.5859 82.3157C19.647 81.641 20.2462 79.4452 20.6865 78.2675C21.1267 77.0899 22.1539 74.71 22.7042 73.2993C22.7042 73.2993 21.4202 74.2193 20.1362 72.5632C20.1362 72.5632 19.4024 71.4592 19.9527 69.8031C19.9527 69.8031 22.1539 71.8272 25.0889 70.7231C28.6875 69.3694 28.891 65.7549 28.7576 64.2828C28.6242 62.8107 24.9055 59.3146 22.7042 64.0988C22.7042 64.0988 23.261 64.9833 24.3552 65.2028C26.1895 65.5709 26.6175 64.7122 27.1067 64.2828C27.1067 64.2828 27.4735 68.331 24.3552 68.699C21.6225 69.0215 20.3196 66.6749 20.3196 66.6749C19.4391 65.4973 19.8304 63.4855 20.1362 62.6267C19.7081 62.6881 18.8521 62.9211 18.1184 62.6267C17.2012 62.2587 16.4675 61.5227 16.284 61.3387Z" fill="#FFC226"/>
<path d="M113.716 58.2105L115 59.4985C115 59.4985 114.852 52.352 113.899 47.9059C112.961 43.5293 110.414 37.2334 110.414 37.2334C110.353 37.9081 109.754 40.1039 109.314 41.2816C108.873 42.4593 107.846 44.8391 107.296 46.2499C107.296 46.2499 108.58 45.3298 109.864 46.9859C109.864 46.9859 110.598 48.09 110.047 49.746C110.047 49.746 107.846 47.7219 104.911 48.826C101.312 50.1797 101.109 53.7942 101.242 55.2663C101.376 56.7384 105.095 60.2346 107.296 55.4503C107.296 55.4503 106.739 54.5658 105.645 54.3463C103.811 53.9783 103.382 54.837 102.893 55.2663C102.893 55.2663 102.526 51.2181 105.645 50.8501C108.378 50.5276 109.68 52.8742 109.68 52.8742C110.561 54.0519 110.17 56.0637 109.864 56.9224C110.292 56.8611 111.148 56.628 111.882 56.9224C112.799 57.2904 113.533 58.0264 113.716 58.2105Z" fill="#FFC226"/>
<path d="M113.716 61.3387L115 60.0506C115 60.0506 114.852 67.1972 113.899 71.6432C112.961 76.0199 110.414 82.3157 110.414 82.3157C110.353 81.641 109.754 79.4452 109.314 78.2675C108.873 77.0899 107.846 74.71 107.296 73.2993C107.296 73.2993 108.58 74.2193 109.864 72.5632C109.864 72.5632 110.598 71.4592 110.047 69.8031C110.047 69.8031 107.846 71.8272 104.911 70.7231C101.312 69.3694 101.109 65.7549 101.242 64.2828C101.376 62.8107 105.095 59.3146 107.296 64.0988C107.296 64.0988 106.739 64.9833 105.645 65.2028C103.811 65.5709 103.382 64.7122 102.893 64.2828C102.893 64.2828 102.526 68.331 105.645 68.699C108.378 69.0215 109.68 66.6749 109.68 66.6749C110.561 65.4973 110.17 63.4855 109.864 62.6267C110.292 62.6881 111.148 62.9211 111.882 62.6267C112.799 62.2587 113.533 61.5227 113.716 61.3387Z" fill="#FFC226"/>
<path d="M39.9299 85.1579C39.406 86.457 38.8709 87.2042 37.9652 87.775C39.4249 87.3769 40.3381 87.174 42.7335 87.6769C41.2438 86.6033 40.8694 86.2429 39.9299 85.1579Z" fill="#FFC226"/>
<path d="M39.3004 84.5518C38.028 85.1302 37.3057 85.6972 36.7743 86.6284C37.111 85.149 37.2756 84.2254 36.6765 81.8451C37.8069 83.2942 38.1813 83.6546 39.3004 84.5518Z" fill="#FFC226"/>
<path d="M56.3296 94.7723C52.9913 96.8145 47.6048 101.183 45.0121 102.274C45.0121 102.274 47.255 98.5898 43.7517 98.0083C43.7517 98.0083 43.5394 101.707 41.32 102.246C35.2254 102.57 34.169 95.7158 36.5938 92.4034C38.6397 90.3834 41.3796 94.2897 36.9353 96.1067C38.3858 99.6333 43.7559 97.4532 43.5948 94.3064C44.3305 94.682 44.3729 94.7252 44.6969 95.0548C45.9794 96.3597 47.6422 96.1872 50.2308 95.6516L47.1272 91.0023C50.2516 92.8762 53.0109 94.1922 56.3296 94.7723Z" fill="#FFC226"/>
<path d="M29.1836 68.1698C27.2218 71.5609 22.9857 77.0567 21.9561 79.6792C21.9561 79.6792 25.5801 77.3488 26.2389 80.8461C26.2389 80.8461 22.554 81.1421 22.0669 83.3781C21.8807 89.4925 28.7413 90.3967 31.9908 87.8924C33.9596 85.7969 30.0015 83.1394 28.2892 87.6336C24.7389 86.2596 26.7925 80.8295 29.935 80.92C29.5438 80.1913 29.4997 80.1497 29.1636 79.8325C27.8332 78.5768 27.9678 76.9067 28.4438 74.3008L33.1511 77.3061C31.2117 74.2175 29.8369 71.4822 29.1836 68.1698Z" fill="#FFC226"/>
<path d="M34.99 89.6171C34.99 89.6171 32.137 93.1304 34.0046 99.3088C34.0046 99.3088 31.0922 97.2255 29.3319 95.5307C27.4792 93.7468 25.3158 90.9283 25.3158 90.9283C31.5889 92.6396 34.99 89.6171 34.99 89.6171Z" fill="#FFC226"/>
<path d="M63.4264 108.712L64.7104 110C64.7104 110 57.5862 109.852 53.1541 108.896C48.7911 107.955 42.5149 105.4 42.5149 105.4C43.1875 105.338 45.3765 104.737 46.5504 104.296C47.7244 103.854 50.0968 102.824 51.5032 102.272C51.5032 102.272 50.586 103.56 52.2369 104.848C52.2369 104.848 53.3375 105.584 54.9884 105.032C54.9884 105.032 52.9707 102.824 54.0713 99.8795C55.4207 96.2696 59.024 96.0655 60.4915 96.1993C61.959 96.3331 65.4442 100.063 60.6749 102.272C60.6749 102.272 59.7931 101.713 59.5743 100.616C59.2074 98.7754 60.0635 98.3461 60.4915 97.8554C60.4915 97.8554 56.4559 97.4874 56.089 100.616C55.7675 103.357 58.1068 104.664 58.1068 104.664C59.2808 105.547 61.2863 105.154 62.1424 104.848C62.0812 105.277 61.8489 106.136 62.1424 106.872C62.5092 107.792 63.243 108.528 63.4264 108.712Z" fill="#FFC226"/>
<path d="M66.5448 108.712L65.2607 110C65.2607 110 72.385 109.852 76.8171 108.896C81.1801 107.955 87.4563 105.4 87.4563 105.4C86.7837 105.338 84.5947 104.737 83.4207 104.296C82.2468 103.854 79.8743 102.824 78.468 102.272C78.468 102.272 79.3852 103.56 77.7343 104.848C77.7343 104.848 76.6337 105.584 74.9828 105.032C74.9828 105.032 77.0005 102.824 75.8999 99.8795C74.5505 96.2696 70.9472 96.0655 69.4797 96.1993C68.0122 96.3331 64.527 100.063 69.2963 102.272C69.2963 102.272 70.178 101.713 70.3969 100.616C70.7638 98.7754 69.9077 98.3461 69.4797 97.8554C69.4797 97.8554 73.5153 97.4874 73.8822 100.616C74.2036 103.357 71.8644 104.664 71.8644 104.664C70.6904 105.547 68.6849 105.154 67.8288 104.848C67.89 105.277 68.1223 106.136 67.8288 106.872C67.462 107.792 66.7282 108.528 66.5448 108.712Z" fill="#FFC226"/>
<path d="M90.0419 85.1579C90.5658 86.457 91.1009 87.2042 92.0066 87.775C90.547 87.3769 89.6337 87.174 87.2383 87.6769C88.728 86.6033 89.1024 86.2429 90.0419 85.1579Z" fill="#FFC226"/>
<path d="M90.6714 84.5518C91.9438 85.1302 92.6661 85.6972 93.1975 86.6284C92.8608 85.149 92.6962 84.2254 93.2953 81.8451C92.1649 83.2942 91.7905 83.6546 90.6714 84.5518Z" fill="#FFC226"/>
<path d="M73.4587 94.7723C76.797 96.8145 82.1835 101.183 84.7763 102.274C84.7763 102.274 82.5333 98.5898 86.0366 98.0083C86.0366 98.0083 86.2489 101.707 88.4683 102.246C94.5629 102.57 95.6193 95.7158 93.1945 92.4034C91.1487 90.3834 88.4087 94.2897 92.8531 96.1067C91.4026 99.6333 86.0325 97.4532 86.1935 94.3064C85.4579 94.682 85.4154 94.7252 85.0914 95.0548C83.8089 96.3597 82.1461 96.1872 79.5575 95.6516L82.6611 91.0023C79.5367 92.8762 76.7774 94.1922 73.4587 94.7723Z" fill="#FFC226"/>
<path d="M100.605 68.1698C102.567 71.5609 106.803 77.0567 107.832 79.6792C107.832 79.6792 104.208 77.3488 103.549 80.8461C103.549 80.8461 107.234 81.1421 107.721 83.3781C107.908 89.4925 101.047 90.3967 97.7976 87.8924C95.8287 85.7969 99.7869 83.1394 101.499 87.6336C105.049 86.2596 102.996 80.8295 99.8534 80.92C100.245 80.1913 100.289 80.1497 100.625 79.8325C101.955 78.5768 101.821 76.9067 101.345 74.3008L96.6372 77.3061C98.5766 74.2175 99.9514 71.4822 100.605 68.1698Z" fill="#FFC226"/>
<path d="M94.9815 89.6171C94.9815 89.6171 97.8345 93.1304 95.967 99.3088C95.967 99.3088 98.8794 97.2255 100.64 95.5307C102.492 93.7468 104.656 90.9283 104.656 90.9283C98.3826 92.6396 94.9815 89.6171 94.9815 89.6171Z" fill="#FFC226"/>
<path d="M66.5455 108.712L65.2615 110C65.2615 110 72.3857 109.852 76.8178 108.896C81.1808 107.955 87.457 105.4 87.457 105.4C86.7844 105.338 84.5955 104.737 83.4215 104.296C82.2475 103.854 79.8751 102.824 78.4687 102.272C78.4687 102.272 79.3859 103.56 77.735 104.848C77.735 104.848 76.6344 105.584 74.9835 105.032C74.9835 105.032 77.0013 102.824 75.9007 99.8795C74.5512 96.2696 70.9479 96.0655 69.4804 96.1993C68.0129 96.3331 64.5277 100.063 69.297 102.272C69.297 102.272 70.1788 101.713 70.3976 100.616C70.7645 98.7754 69.9085 98.3461 69.4804 97.8554C69.4804 97.8554 73.516 97.4874 73.8829 100.616C74.2044 103.357 71.8651 104.664 71.8651 104.664C70.6911 105.547 68.6856 105.154 67.8296 104.848C67.8907 105.277 68.123 106.136 67.8296 106.872C67.4627 107.792 66.729 108.528 66.5455 108.712Z" fill="#FFC226"/>
<path d="M63.4264 108.712L64.7104 110C64.7104 110 57.5862 109.852 53.1541 108.896C48.7911 107.955 42.5149 105.4 42.5149 105.4C43.1875 105.338 45.3765 104.737 46.5504 104.296C47.7244 103.854 50.0968 102.824 51.5032 102.272C51.5032 102.272 50.586 103.56 52.2369 104.848C52.2369 104.848 53.3375 105.584 54.9884 105.032C54.9884 105.032 52.9707 102.824 54.0713 99.8795C55.4207 96.2696 59.024 96.0655 60.4915 96.1993C61.959 96.3331 65.4442 100.063 60.6749 102.272C60.6749 102.272 59.7931 101.713 59.5743 100.616C59.2074 98.7754 60.0635 98.3461 60.4915 97.8554C60.4915 97.8554 56.4559 97.4874 56.089 100.616C55.7675 103.357 58.1068 104.664 58.1068 104.664C59.2808 105.547 61.2863 105.154 62.1424 104.848C62.0812 105.277 61.8489 106.136 62.1424 106.872C62.5092 107.792 63.243 108.528 63.4264 108.712Z" fill="#FFC226"/>
<rect width="367" height="120" rx="15" fill="white"/>
<path d="M39.9299 34.8421C39.406 33.543 38.8709 32.7958 37.9652 32.225C39.4249 32.6231 40.3381 32.826 42.7335 32.3231C41.2438 33.3967 40.8694 33.7571 39.9299 34.8421Z" fill="#FFC226"/>
<path d="M39.3004 35.4482C38.028 34.8698 37.3057 34.3028 36.7743 33.3716C37.111 34.851 37.2756 35.7746 36.6765 38.1549C37.8069 36.7058 38.1813 36.3454 39.3004 35.4482Z" fill="#FFC226"/>
<path d="M45.0121 17.4594C47.6048 18.5501 52.9914 22.9186 56.3297 24.9608C53.011 25.5408 50.2517 26.8568 47.1273 28.7306L50.2309 24.0814C47.6423 23.5458 45.9795 23.3732 44.697 24.6781C44.373 25.0077 44.3305 25.0509 43.5949 25.4265C43.7559 22.2797 38.3858 20.0996 36.9353 23.6262C41.3797 25.4432 38.6398 29.3495 36.5939 27.3295C34.1691 24.0171 35.2254 17.1628 41.32 17.4871C43.5394 18.0255 43.7517 21.7246 43.7517 21.7246C47.2551 21.1432 45.0121 17.4594 45.0121 17.4594Z" fill="#FFC226"/>
<path d="M29.1836 51.5633C27.2218 48.1722 22.9857 42.6764 21.9561 40.0539C21.9561 40.0539 25.5801 42.3843 26.2389 38.887C26.2389 38.887 22.554 38.591 22.0669 36.3549C21.8807 30.2406 28.7413 29.3364 31.9908 31.8406C33.9596 33.9361 30.0015 36.5937 28.2892 32.0995C24.7389 33.4735 26.7925 38.9036 29.935 38.8131C29.5438 39.5418 29.4997 39.5834 29.1636 39.9005C27.8332 41.1563 27.9678 42.8264 28.4438 45.4323L33.1511 42.427C31.2117 45.5156 29.8369 48.2509 29.1836 51.5633Z" fill="#FFC226"/>
<path d="M34.99 30.3829C34.99 30.3829 32.137 26.8696 34.0046 20.6912C34.0046 20.6912 31.0922 22.7745 29.3319 24.4693C27.4792 26.2532 25.3158 29.0717 25.3158 29.0717C31.5889 27.3604 34.99 30.3829 34.99 30.3829Z" fill="#FFC226"/>
<path d="M63.4264 11.2881L64.7104 10C64.7104 10 57.5862 10.148 53.1541 11.1041C48.7911 12.0452 42.5149 14.6002 42.5149 14.6002C43.1875 14.6616 45.3765 15.2627 46.5504 15.7043C47.7244 16.1459 50.0968 17.1764 51.5032 17.7284C51.5032 17.7284 50.586 16.4403 52.2369 15.1523C52.2369 15.1523 53.3375 14.4162 54.9884 14.9683C54.9884 14.9683 52.9707 17.1764 54.0713 20.1205C55.4207 23.7304 59.024 23.9345 60.4915 23.8007C61.959 23.6669 65.4442 19.9365 60.6749 17.7284C60.6749 17.7284 59.7931 18.2869 59.5743 19.3845C59.2074 21.2246 60.0635 21.6539 60.4915 22.1446C60.4915 22.1446 56.4559 22.5126 56.089 19.3845C55.7675 16.6432 58.1068 15.3363 58.1068 15.3363C59.2808 14.453 61.2863 14.8456 62.1424 15.1523C62.0812 14.7229 61.8489 13.8642 62.1424 13.1282C62.5092 12.2081 63.243 11.4721 63.4264 11.2881Z" fill="#FFC226"/>
<path d="M66.5448 11.2881L65.2607 10C65.2607 10 72.385 10.148 76.8171 11.1041C81.1801 12.0452 87.4563 14.6002 87.4563 14.6002C86.7837 14.6616 84.5947 15.2627 83.4207 15.7043C82.2468 16.1459 79.8743 17.1764 78.468 17.7284C78.468 17.7284 79.3852 16.4403 77.7343 15.1523C77.7343 15.1523 76.6337 14.4162 74.9828 14.9683C74.9828 14.9683 77.0005 17.1764 75.8999 20.1205C74.5505 23.7304 70.9472 23.9345 69.4797 23.8007C68.0122 23.6669 64.527 19.9365 69.2963 17.7284C69.2963 17.7284 70.178 18.2869 70.3969 19.3845C70.7638 21.2246 69.9077 21.6539 69.4797 22.1446C69.4797 22.1446 73.5153 22.5126 73.8822 19.3845C74.2036 16.6432 71.8644 15.3363 71.8644 15.3363C70.6904 14.453 68.6849 14.8456 67.8288 15.1523C67.89 14.7229 68.1223 13.8642 67.8288 13.1282C67.462 12.2081 66.7282 11.4721 66.5448 11.2881Z" fill="#FFC226"/>
<path d="M90.0419 34.8421C90.5658 33.543 91.1009 32.7958 92.0066 32.225C90.547 32.6231 89.6337 32.826 87.2383 32.3231C88.728 33.3967 89.1024 33.7571 90.0419 34.8421Z" fill="#FFC226"/>
<path d="M90.6714 35.4482C91.9438 34.8698 92.6661 34.3028 93.1975 33.3716C92.8608 34.851 92.6962 35.7746 93.2953 38.1549C92.1649 36.7058 91.7905 36.3454 90.6714 35.4482Z" fill="#FFC226"/>
<path d="M73.4586 24.9608C76.797 22.9185 82.1835 18.5501 84.7763 17.4593C84.7763 17.4593 82.5333 21.1432 86.0366 21.7246C86.0366 21.7246 86.2489 18.0255 88.4683 17.4871C94.5629 17.1628 95.6193 24.0171 93.1945 27.3295C91.1486 29.3495 88.4087 25.4432 92.853 23.6262C91.4025 20.0996 86.0324 22.2797 86.1934 25.4265C85.4578 25.0509 85.4153 25.0077 85.0914 24.6781C83.8089 23.3732 82.146 23.5457 79.5575 24.0814L82.661 28.7306C79.5366 26.8568 76.7773 25.5408 73.4586 24.9608Z" fill="#FFC226"/>
<path d="M100.605 51.5633C102.567 48.1722 106.803 42.6764 107.832 40.0539C107.832 40.0539 104.208 42.3843 103.549 38.887C103.549 38.887 107.234 38.591 107.721 36.3549C107.908 30.2406 101.047 29.3364 97.7976 31.8406C95.8287 33.9361 99.7869 36.5937 101.499 32.0995C105.049 33.4735 102.996 38.9036 99.8534 38.8131C100.245 39.5418 100.289 39.5834 100.625 39.9005C101.955 41.1563 101.821 42.8264 101.345 45.4323L96.6372 42.427C98.5766 45.5156 99.9514 48.2509 100.605 51.5633Z" fill="#FFC226"/>
<path d="M94.9815 30.3829C94.9815 30.3829 97.8345 26.8696 95.967 20.6912C95.967 20.6912 98.8794 22.7745 100.64 24.4693C102.492 26.2532 104.656 29.0717 104.656 29.0717C98.3826 27.3604 94.9815 30.3829 94.9815 30.3829Z" fill="#FFC226"/>
<path d="M66.5452 11.2881L65.2611 10C65.2611 10 72.3853 10.148 76.8175 11.1041C81.1805 12.0452 87.4567 14.6002 87.4567 14.6002C86.7841 14.6616 84.5951 15.2627 83.4211 15.7043C82.2471 16.1459 79.8747 17.1764 78.4684 17.7284C78.4684 17.7284 79.3856 16.4403 77.7346 15.1523C77.7346 15.1523 76.634 14.4162 74.9831 14.9683C74.9831 14.9683 77.0009 17.1764 75.9003 20.1205C74.5508 23.7304 70.9476 23.9345 69.4801 23.8007C68.0126 23.6669 64.5274 19.9365 69.2967 17.7284C69.2967 17.7284 70.1784 18.2869 70.3972 19.3845C70.7641 21.2246 69.9081 21.6539 69.4801 22.1446C69.4801 22.1446 73.5157 22.5126 73.8825 19.3845C74.204 16.6432 71.8647 15.3363 71.8647 15.3363C70.6908 14.453 68.6852 14.8456 67.8292 15.1523C67.8903 14.7229 68.1227 13.8642 67.8292 13.1282C67.4623 12.2081 66.7286 11.4721 66.5452 11.2881Z" fill="#FFC226"/>
<path d="M63.4264 11.2881L64.7104 10C64.7104 10 57.5862 10.148 53.1541 11.1041C48.7911 12.0452 42.5149 14.6002 42.5149 14.6002C43.1875 14.6616 45.3765 15.2627 46.5504 15.7043C47.7244 16.1459 50.0968 17.1764 51.5032 17.7284C51.5032 17.7284 50.586 16.4403 52.2369 15.1523C52.2369 15.1523 53.3375 14.4162 54.9884 14.9683C54.9884 14.9683 52.9707 17.1764 54.0713 20.1205C55.4207 23.7304 59.024 23.9345 60.4915 23.8007C61.959 23.6669 65.4442 19.9365 60.6749 17.7284C60.6749 17.7284 59.7931 18.2869 59.5743 19.3845C59.2074 21.2246 60.0635 21.6539 60.4915 22.1446C60.4915 22.1446 56.4559 22.5126 56.089 19.3845C55.7675 16.6432 58.1068 15.3363 58.1068 15.3363C59.2808 14.453 61.2863 14.8456 62.1424 15.1523C62.0812 14.7229 61.8489 13.8642 62.1424 13.1282C62.5092 12.2081 63.243 11.4721 63.4264 11.2881Z" fill="#FFC226"/>
<path d="M16.284 58.2105L15 59.4985C15 59.4985 15.1476 52.352 16.1006 47.9059C17.0388 43.5293 19.5859 37.2334 19.5859 37.2334C19.647 37.9081 20.2462 40.1039 20.6865 41.2816C21.1267 42.4593 22.1539 44.8391 22.7042 46.2499C22.7042 46.2499 21.4202 45.3298 20.1362 46.9859C20.1362 46.9859 19.4024 48.09 19.9527 49.746C19.9527 49.746 22.1539 47.7219 25.0889 48.826C28.6875 50.1797 28.891 53.7942 28.7576 55.2663C28.6242 56.7384 24.9055 60.2346 22.7042 55.4503C22.7042 55.4503 23.261 54.5658 24.3552 54.3463C26.1895 53.9783 26.6175 54.837 27.1067 55.2663C27.1067 55.2663 27.4735 51.2181 24.3552 50.8501C21.6225 50.5276 20.3196 52.8742 20.3196 52.8742C19.4391 54.0519 19.8304 56.0637 20.1362 56.9224C19.7082 56.8611 18.8521 56.628 18.1184 56.9224C17.2012 57.2904 16.4675 58.0264 16.284 58.2105Z" fill="#FFC226"/>
<path d="M16.284 61.3387L15 60.0506C15 60.0506 15.1476 67.1972 16.1006 71.6432C17.0388 76.0199 19.5859 82.3157 19.5859 82.3157C19.647 81.641 20.2462 79.4452 20.6865 78.2675C21.1267 77.0899 22.1539 74.71 22.7042 73.2993C22.7042 73.2993 21.4202 74.2193 20.1362 72.5632C20.1362 72.5632 19.4024 71.4592 19.9527 69.8031C19.9527 69.8031 22.1539 71.8272 25.0889 70.7231C28.6875 69.3694 28.891 65.7549 28.7576 64.2828C28.6242 62.8107 24.9055 59.3146 22.7042 64.0988C22.7042 64.0988 23.261 64.9833 24.3552 65.2028C26.1895 65.5709 26.6175 64.7122 27.1067 64.2828C27.1067 64.2828 27.4735 68.331 24.3552 68.699C21.6225 69.0215 20.3196 66.6749 20.3196 66.6749C19.4391 65.4973 19.8304 63.4855 20.1362 62.6267C19.7081 62.6881 18.8521 62.9211 18.1184 62.6267C17.2012 62.2587 16.4675 61.5227 16.284 61.3387Z" fill="#FFC226"/>
<path d="M113.716 58.2105L115 59.4985C115 59.4985 114.852 52.352 113.899 47.9059C112.961 43.5293 110.414 37.2334 110.414 37.2334C110.353 37.9081 109.754 40.1039 109.314 41.2816C108.873 42.4593 107.846 44.8391 107.296 46.2499C107.296 46.2499 108.58 45.3298 109.864 46.9859C109.864 46.9859 110.598 48.09 110.047 49.746C110.047 49.746 107.846 47.7219 104.911 48.826C101.312 50.1797 101.109 53.7942 101.242 55.2663C101.376 56.7384 105.095 60.2346 107.296 55.4503C107.296 55.4503 106.739 54.5658 105.645 54.3463C103.811 53.9783 103.382 54.837 102.893 55.2663C102.893 55.2663 102.526 51.2181 105.645 50.8501C108.378 50.5276 109.68 52.8742 109.68 52.8742C110.561 54.0519 110.17 56.0637 109.864 56.9224C110.292 56.8611 111.148 56.628 111.882 56.9224C112.799 57.2904 113.533 58.0264 113.716 58.2105Z" fill="#FFC226"/>
<path d="M113.716 61.3387L115 60.0506C115 60.0506 114.852 67.1972 113.899 71.6432C112.961 76.0199 110.414 82.3157 110.414 82.3157C110.353 81.641 109.754 79.4452 109.314 78.2675C108.873 77.0899 107.846 74.71 107.296 73.2993C107.296 73.2993 108.58 74.2193 109.864 72.5632C109.864 72.5632 110.598 71.4592 110.047 69.8031C110.047 69.8031 107.846 71.8272 104.911 70.7231C101.312 69.3694 101.109 65.7549 101.242 64.2828C101.376 62.8107 105.095 59.3146 107.296 64.0988C107.296 64.0988 106.739 64.9833 105.645 65.2028C103.811 65.5709 103.382 64.7122 102.893 64.2828C102.893 64.2828 102.526 68.331 105.645 68.699C108.378 69.0215 109.68 66.6749 109.68 66.6749C110.561 65.4973 110.17 63.4855 109.864 62.6267C110.292 62.6881 111.148 62.9211 111.882 62.6267C112.799 62.2587 113.533 61.5227 113.716 61.3387Z" fill="#FFC226"/>
<path d="M39.9299 85.1579C39.406 86.457 38.8709 87.2042 37.9652 87.775C39.4249 87.3769 40.3381 87.174 42.7335 87.6769C41.2438 86.6033 40.8694 86.2429 39.9299 85.1579Z" fill="#FFC226"/>
<path d="M39.3004 84.5518C38.028 85.1302 37.3057 85.6972 36.7743 86.6284C37.111 85.149 37.2756 84.2254 36.6765 81.8451C37.8069 83.2942 38.1813 83.6546 39.3004 84.5518Z" fill="#FFC226"/>
<path d="M56.3296 94.7723C52.9913 96.8145 47.6048 101.183 45.0121 102.274C45.0121 102.274 47.255 98.5898 43.7517 98.0083C43.7517 98.0083 43.5394 101.707 41.32 102.246C35.2254 102.57 34.169 95.7158 36.5938 92.4034C38.6397 90.3834 41.3796 94.2897 36.9353 96.1067C38.3858 99.6333 43.7559 97.4532 43.5948 94.3064C44.3305 94.682 44.3729 94.7252 44.6969 95.0548C45.9794 96.3597 47.6422 96.1872 50.2308 95.6516L47.1272 91.0023C50.2516 92.8762 53.0109 94.1922 56.3296 94.7723Z" fill="#FFC226"/>
<path d="M29.1836 68.1698C27.2218 71.5609 22.9857 77.0567 21.9561 79.6792C21.9561 79.6792 25.5801 77.3488 26.2389 80.8461C26.2389 80.8461 22.554 81.1421 22.0669 83.3781C21.8807 89.4925 28.7413 90.3967 31.9908 87.8924C33.9596 85.7969 30.0015 83.1394 28.2892 87.6336C24.7389 86.2596 26.7925 80.8295 29.935 80.92C29.5438 80.1913 29.4997 80.1497 29.1636 79.8325C27.8332 78.5768 27.9678 76.9067 28.4438 74.3008L33.1511 77.3061C31.2117 74.2175 29.8369 71.4822 29.1836 68.1698Z" fill="#FFC226"/>
<path d="M34.99 89.6171C34.99 89.6171 32.137 93.1304 34.0046 99.3088C34.0046 99.3088 31.0922 97.2255 29.3319 95.5307C27.4792 93.7468 25.3158 90.9283 25.3158 90.9283C31.5889 92.6396 34.99 89.6171 34.99 89.6171Z" fill="#FFC226"/>
<path d="M63.4264 108.712L64.7104 110C64.7104 110 57.5862 109.852 53.1541 108.896C48.7911 107.955 42.5149 105.4 42.5149 105.4C43.1875 105.338 45.3765 104.737 46.5504 104.296C47.7244 103.854 50.0968 102.824 51.5032 102.272C51.5032 102.272 50.586 103.56 52.2369 104.848C52.2369 104.848 53.3375 105.584 54.9884 105.032C54.9884 105.032 52.9707 102.824 54.0713 99.8795C55.4207 96.2696 59.024 96.0655 60.4915 96.1993C61.959 96.3331 65.4442 100.063 60.6749 102.272C60.6749 102.272 59.7931 101.713 59.5743 100.616C59.2074 98.7754 60.0635 98.3461 60.4915 97.8554C60.4915 97.8554 56.4559 97.4874 56.089 100.616C55.7675 103.357 58.1068 104.664 58.1068 104.664C59.2808 105.547 61.2863 105.154 62.1424 104.848C62.0812 105.277 61.8489 106.136 62.1424 106.872C62.5092 107.792 63.243 108.528 63.4264 108.712Z" fill="#FFC226"/>
<path d="M66.5448 108.712L65.2607 110C65.2607 110 72.385 109.852 76.8171 108.896C81.1801 107.955 87.4563 105.4 87.4563 105.4C86.7837 105.338 84.5947 104.737 83.4207 104.296C82.2468 103.854 79.8743 102.824 78.468 102.272C78.468 102.272 79.3852 103.56 77.7343 104.848C77.7343 104.848 76.6337 105.584 74.9828 105.032C74.9828 105.032 77.0005 102.824 75.8999 99.8795C74.5505 96.2696 70.9472 96.0655 69.4797 96.1993C68.0122 96.3331 64.527 100.063 69.2963 102.272C69.2963 102.272 70.178 101.713 70.3969 100.616C70.7638 98.7754 69.9077 98.3461 69.4797 97.8554C69.4797 97.8554 73.5153 97.4874 73.8822 100.616C74.2036 103.357 71.8644 104.664 71.8644 104.664C70.6904 105.547 68.6849 105.154 67.8288 104.848C67.89 105.277 68.1223 106.136 67.8288 106.872C67.462 107.792 66.7282 108.528 66.5448 108.712Z" fill="#FFC226"/>
<path d="M90.0419 85.1579C90.5658 86.457 91.1009 87.2042 92.0066 87.775C90.547 87.3769 89.6337 87.174 87.2383 87.6769C88.728 86.6033 89.1024 86.2429 90.0419 85.1579Z" fill="#FFC226"/>
<path d="M90.6714 84.5518C91.9438 85.1302 92.6661 85.6972 93.1975 86.6284C92.8608 85.149 92.6962 84.2254 93.2953 81.8451C92.1649 83.2942 91.7905 83.6546 90.6714 84.5518Z" fill="#FFC226"/>
<path d="M73.4587 94.7723C76.797 96.8145 82.1835 101.183 84.7763 102.274C84.7763 102.274 82.5333 98.5898 86.0366 98.0083C86.0366 98.0083 86.2489 101.707 88.4683 102.246C94.5629 102.57 95.6193 95.7158 93.1945 92.4034C91.1487 90.3834 88.4087 94.2897 92.8531 96.1067C91.4026 99.6333 86.0325 97.4532 86.1935 94.3064C85.4579 94.682 85.4154 94.7252 85.0914 95.0548C83.8089 96.3597 82.1461 96.1872 79.5575 95.6516L82.6611 91.0023C79.5367 92.8762 76.7774 94.1922 73.4587 94.7723Z" fill="#FFC226"/>
<path d="M100.605 68.1698C102.567 71.5609 106.803 77.0567 107.832 79.6792C107.832 79.6792 104.208 77.3488 103.549 80.8461C103.549 80.8461 107.234 81.1421 107.721 83.3781C107.908 89.4925 101.047 90.3967 97.7976 87.8924C95.8287 85.7969 99.7869 83.1394 101.499 87.6336C105.049 86.2596 102.996 80.8295 99.8534 80.92C100.245 80.1913 100.289 80.1497 100.625 79.8325C101.955 78.5768 101.821 76.9067 101.345 74.3008L96.6372 77.3061C98.5766 74.2175 99.9514 71.4822 100.605 68.1698Z" fill="#FFC226"/>
<path d="M94.9815 89.6171C94.9815 89.6171 97.8345 93.1304 95.967 99.3088C95.967 99.3088 98.8794 97.2255 100.64 95.5307C102.492 93.7468 104.656 90.9283 104.656 90.9283C98.3826 92.6396 94.9815 89.6171 94.9815 89.6171Z" fill="#FFC226"/>
<path d="M66.5455 108.712L65.2615 110C65.2615 110 72.3857 109.852 76.8178 108.896C81.1808 107.955 87.457 105.4 87.457 105.4C86.7844 105.338 84.5955 104.737 83.4215 104.296C82.2475 103.854 79.8751 102.824 78.4687 102.272C78.4687 102.272 79.3859 103.56 77.735 104.848C77.735 104.848 76.6344 105.584 74.9835 105.032C74.9835 105.032 77.0013 102.824 75.9007 99.8795C74.5512 96.2696 70.9479 96.0655 69.4804 96.1993C68.0129 96.3331 64.5277 100.063 69.297 102.272C69.297 102.272 70.1788 101.713 70.3976 100.616C70.7645 98.7754 69.9085 98.3461 69.4804 97.8554C69.4804 97.8554 73.516 97.4874 73.8829 100.616C74.2044 103.357 71.8651 104.664 71.8651 104.664C70.6911 105.547 68.6856 105.154 67.8296 104.848C67.8907 105.277 68.123 106.136 67.8296 106.872C67.4627 107.792 66.729 108.528 66.5455 108.712Z" fill="#FFC226"/>
<path d="M63.4264 108.712L64.7104 110C64.7104 110 57.5862 109.852 53.1541 108.896C48.7911 107.955 42.5149 105.4 42.5149 105.4C43.1875 105.338 45.3765 104.737 46.5504 104.296C47.7244 103.854 50.0968 102.824 51.5032 102.272C51.5032 102.272 50.586 103.56 52.2369 104.848C52.2369 104.848 53.3375 105.584 54.9884 105.032C54.9884 105.032 52.9707 102.824 54.0713 99.8795C55.4207 96.2696 59.024 96.0655 60.4915 96.1993C61.959 96.3331 65.4442 100.063 60.6749 102.272C60.6749 102.272 59.7931 101.713 59.5743 100.616C59.2074 98.7754 60.0635 98.3461 60.4915 97.8554C60.4915 97.8554 56.4559 97.4874 56.089 100.616C55.7675 103.357 58.1068 104.664 58.1068 104.664C59.2808 105.547 61.2863 105.154 62.1424 104.848C62.0812 105.277 61.8489 106.136 62.1424 106.872C62.5092 107.792 63.243 108.528 63.4264 108.712Z" fill="#FFC226"/>
<path d="M145.539 68.4844C145.539 71.5781 144.422 74.0156 142.188 75.7969C139.969 77.5781 136.875 78.4688 132.906 78.4688C129.25 78.4688 126.016 77.7812 123.203 76.4062V69.6562C125.516 70.6875 127.469 71.4141 129.062 71.8359C130.672 72.2578 132.141 72.4688 133.469 72.4688C135.062 72.4688 136.281 72.1641 137.125 71.5547C137.984 70.9453 138.414 70.0391 138.414 68.8359C138.414 68.1641 138.227 67.5703 137.852 67.0547C137.477 66.5234 136.922 66.0156 136.188 65.5312C135.469 65.0469 133.992 64.2734 131.758 63.2109C129.664 62.2266 128.094 61.2812 127.047 60.375C126 59.4688 125.164 58.4141 124.539 57.2109C123.914 56.0078 123.602 54.6016 123.602 52.9922C123.602 49.9609 124.625 47.5781 126.672 45.8438C128.734 44.1094 131.578 43.2422 135.203 43.2422C136.984 43.2422 138.68 43.4531 140.289 43.875C141.914 44.2969 143.609 44.8906 145.375 45.6562L143.031 51.3047C141.203 50.5547 139.688 50.0312 138.484 49.7344C137.297 49.4375 136.125 49.2891 134.969 49.2891C133.594 49.2891 132.539 49.6094 131.805 50.25C131.07 50.8906 130.703 51.7266 130.703 52.7578C130.703 53.3984 130.852 53.9609 131.148 54.4453C131.445 54.9141 131.914 55.375 132.555 55.8281C133.211 56.2656 134.75 57.0625 137.172 58.2188C140.375 59.75 142.57 61.2891 143.758 62.8359C144.945 64.3672 145.539 66.25 145.539 68.4844ZM172.727 78L170.242 69.8438H157.75L155.266 78H147.438L159.531 43.5938H168.414L180.555 78H172.727ZM168.508 63.75C166.211 56.3594 164.914 52.1797 164.617 51.2109C164.336 50.2422 164.133 49.4766 164.008 48.9141C163.492 50.9141 162.016 55.8594 159.578 63.75H168.508ZM198.109 78H190.844V49.7812H181.539V43.7344H207.414V49.7812H198.109V78ZM223.352 57.8438L230.5 43.7344H238.328L226.961 64.6641V78H219.742V64.8984L208.375 43.7344H216.25L223.352 57.8438ZM249.906 59.8594H252.297C254.531 59.8594 256.203 59.4219 257.312 58.5469C258.422 57.6562 258.977 56.3672 258.977 54.6797C258.977 52.9766 258.508 51.7188 257.57 50.9062C256.648 50.0938 255.195 49.6875 253.211 49.6875H249.906V59.8594ZM266.312 54.4219C266.312 58.1094 265.156 60.9297 262.844 62.8828C260.547 64.8359 257.273 65.8125 253.023 65.8125H249.906V78H242.641V43.7344H253.586C257.742 43.7344 260.898 44.6328 263.055 46.4297C265.227 48.2109 266.312 50.875 266.312 54.4219ZM293.758 78L291.273 69.8438H278.781L276.297 78H268.469L280.562 43.5938H289.445L301.586 78H293.758ZM289.539 63.75C287.242 56.3594 285.945 52.1797 285.648 51.2109C285.367 50.2422 285.164 49.4766 285.039 48.9141C284.523 50.9141 283.047 55.8594 280.609 63.75H289.539ZM305.922 78V43.7344H313.188V72H327.086V78H305.922ZM333.062 78V43.7344H340.328V72H354.227V78H333.062Z" fill="#757575"/>
<path d="M57 50L59.3882 40.0651C59.8204 38.2673 61.4284 37 63.2774 37H65.7226C67.5716 37 69.1796 38.2673 69.6118 40.0651L72 50" stroke="#757575" stroke-width="2"/>
<path d="M55.9526 49H73.5536H80.2044C82.7009 49 84.5874 51.2618 84.1395 53.7178L80.1266 75.7178C79.7798 77.6187 78.1238 79 76.1915 79H53.2599C51.3521 79 49.7098 77.6527 49.337 75.7817L44.9529 53.7817C44.4598 51.3073 46.3527 49 48.8758 49H55.9526Z" fill="#FF9900"/>
<path d="M52.1705 53.8547L56 74.5" stroke="white" stroke-width="2" stroke-linecap="round"/>
<path d="M60.5 53.5L61 74.5" stroke="white" stroke-width="2" stroke-linecap="round"/>
<path d="M76.8295 53.8547L73 74.5" stroke="white" stroke-width="2" stroke-linecap="round"/>
<path d="M68.5 53.5L68 74.5" stroke="white" stroke-width="2" stroke-linecap="round"/>
</svg>
